<svg xmlns="http://www.w3.org/2000/svg" viewBox="0 0 24 24" fill="none" stroke="currentColor" stroke-width="2" stroke-linecap="round" stroke-linejoin="round">
  <!-- Heat pump unit -->
  <rect x="4" y="8" width="16" height="12" rx="2" ry="2"/>
  <!-- Fan -->
  <circle cx="12" cy="14" r="3"/>
  <path d="M12 11v6"/>
  <path d="M9 14h6"/>
  <!-- Heat waves -->
  <path d="M8 4c0 1.5-1 2-1 3s1 1.5 1 3-1 2-1 3"/>
  <path d="M12 4c0 1.5-1 2-1 3s1 1.5 1 3-1 2-1 3"/>
  <path d="M16 4c0 1.5-1 2-1 3s1 1.5 1 3-1 2-1 3"/>
</svg>
